<svg xmlns="http://www.w3.org/2000/svg" viewBox="0 0 437.94 437.95"><defs><style>.cls-1{fill:#fff;}</style></defs><title>minakawaii-white</title><g id="Layer_2" data-name="Layer 2"><g id="Layer_1-2" data-name="Layer 1"><path class="cls-1" d="M218.85,0C98.11,0,.18,97.66,0,218.27-.09,278.75,21.45,331,64.18,373.81c41.94,42,93.26,63.6,152.62,64.13,60.82.54,113.49-20.87,156.64-63.79,42.34-42.11,64-93.68,64.49-153.39C439,97.62,339.26-.26,218.85,0ZM426.14,268.87a4,4,0,0,1-.28,1.13A121.34,121.34,0,0,1,414,286.53c-5.64,6.54-12.81,10.17-21.09,11.92a58.4,58.4,0,0,1-14.73,1.47c-18.66-.81-32.72-9.19-41.77-25.66-4.08-7.43-6.33-15.48-7.8-23.8a164,164,0,0,1-2-19c-.33-5.74-.84-11.47-1.35-17.19a14.38,14.38,0,0,0-.86-3.72c-1.36-3.77-3.88-4.39-6.7-1.58a26.4,26.4,0,0,0-4.09,5c-3.65,6.1-7.38,12.18-10.62,18.5-7,13.66-13.63,27.51-20.56,41.21-3.24,6.42-6.42,12.92-10.9,18.6a32.75,32.75,0,0,1-14.92,10.87c-8.81,3.14-15.58-.78-19.39-7.41a42.47,42.47,0,0,1-5-15.66c-.85-6.33-1.42-12.69-2-19.05-.84-8.74-1.47-17.51-2.47-26.23-.65-5.62-1.74-11.19-2.79-16.75a14.15,14.15,0,0,0-1.78-4.41,2.8,2.8,0,0,0-4.49-.78,13.54,13.54,0,0,0-2.85,3.19,70.21,70.21,0,0,0-4.75,8.05c-5.05,10.78-9.95,21.64-14.9,32.47-5.25,11.48-10.38,23-15.76,34.45a146.09,146.09,0,0,1-24.23,35.55,53,53,0,0,1-8.24,7.29c-5.94,4.31-12.64,5.2-19.63,3.21a89.55,89.55,0,0,1-9.41-3.51c-5.55-2.27-7.8-6.78-8.19-12.46-.47-6.86.78-13.5,2.63-20.06a234.91,234.91,0,0,1,10.81-29.72C129,260.16,134,249.09,138.84,238c2.77-6.37,5.74-12.7,7.15-19.55,1.17-5.7,2.28-11.44,3-17.21a103.34,103.34,0,0,0,1.07-19.81c-.3-4.67-.49-9.4-2.18-13.84a29.41,29.41,0,0,0-3.33-6.6c-2.82-3.92-6.79-5.81-11.7-6-7.57-.34-13.83,2.76-19.68,7.05-6.7,4.92-12,11.22-17,17.77-6.49,8.41-10.56,18-14.27,27.84a242.19,242.19,0,0,1-13.16,29.55c-4.46,8.27-9.54,16.1-16.62,22.45-4,3.57-8.41,6.37-13.73,7.49-6.58,1.39-13,1.17-19.2-1.79-7.27-3.49-11.45-9.51-13.57-17.1C3,239,4,230,6.71,221c2-6.71,5.7-12.44,9.87-18A173.29,173.29,0,0,1,62,160.47a128.18,128.18,0,0,1,43.25-17.7,94.46,94.46,0,0,1,24.93-2.14c9.45.58,18.45,2.7,26.53,7.92,9.05,5.85,14.83,14.16,18.18,24.27a59.33,59.33,0,0,1,2.86,18.64c0,5.34-.48,10.69-.65,16a94.17,94.17,0,0,0,1.28,21,12.8,12.8,0,0,0,1.32,3.57c1,1.81,2.59,2.27,4.21,1a21.1,21.1,0,0,0,4.5-4.6c3.13-4.72,6-9.61,9-14.46,6.13-10.12,12.06-20.36,18.38-30.36a114.44,114.44,0,0,1,17.82-22.22,42.37,42.37,0,0,1,8.57-6.5,18.61,18.61,0,0,1,9.57-2.71,19.71,19.71,0,0,1,7.6,2c6,2.71,10.18,7.39,13.19,13.11,3.61,6.87,5.39,14.24,6.29,22a98.33,98.33,0,0,1,.76,16c-.16,3.33-1,6.62-1.17,9.95-.27,4.85-.76,9.74.68,14.52a8,8,0,0,0,.51,1.34c1.2,2.37,3.2,3.13,5.31,1.53a26.94,26.94,0,0,0,5.76-5.67c3.2-4.49,6.07-9.21,9-13.9,8.17-13.18,16.22-26.44,25.62-38.82a99.79,99.79,0,0,1,12.37-14,52.87,52.87,0,0,1,6.09-4.64,11.73,11.73,0,0,1,9.4-1.72c2.41.55,4.87.94,7.24,1.62,7.54,2.17,12.51,7.18,15.32,14.38a48.28,48.28,0,0,1,3.38,15.6c.22,5.34.41,10.7.36,16,0,3.09-.56,6.17-.83,9.26-.19,2.23-.31,4.46-.46,6.69-.53,7.8-1,15.62-1.63,23.42a125.74,125.74,0,0,0,.21,18.92c.41,6.3,1.26,12.57,3.79,18.45a22.91,22.91,0,0,0,2.63,4.55c2.67,3.58,6.27,4.9,10.57,3.56,10.76-3.34,21-7.75,29.63-15.25.9-.79,1.8-1.56,2.71-2.33.16-.22.33-.43.49-.64s.4-.7.61-1.05l.41.29-.79.95Z"/></g></g></svg>