<svg xmlns="http://www.w3.org/2000/svg" viewBox="0 0 242.15 265.41"><title>6steps</title><g id="Layer_2" data-name="Layer 2"><g id="Layer_1-2" data-name="Layer 1"><path d="M138.42,216.45c-.7,3.26,1.09,7.88-4.06,8.11-4.81.21-3.56-4.13-4-7.13H112.08v24.39H130.2c.74-2.6-.63-7,4.19-6.81,4.39.14,3.61,4,4,7.12,2.27,0,4.44-.37,6.39.1a15.86,15.86,0,0,1,6.44,2.89c3.28,2.8,4.08,9.85,2,14.37-1.95,4.35-5.53,5.94-10.14,5.92-14.66-.05-29.31,0-44,0-5.24,0-8.72-2.26-10.22-6.33-1.84-5-.72-11.78,2.86-14.53a14.86,14.86,0,0,1,6-2.31c1.89-.38,3.91-.08,6.45-.08V216.82c-6.89-1.84-13.67-3.08-20-5.45-43.11-16.08-68.83-47-77.79-92-.92-4.65-1-9.46-1.71-14.17a4,4,0,0,0-1.75-2.78C.65,101.34-.66,99.56.34,97.48a6.17,6.17,0,0,1,4.4-3c5.91-.34,11.85-.13,17.78-.15a19.2,19.2,0,0,0,2-.24C26.12,42.52,68.9,1.64,117.05.06c26.89-.88,50.26,7.83,69.78,26.34,19.37,18.35,29.22,41.2,30.88,68,6.7,0,13.2,0,19.69,0,2.41,0,4.67.66,4.75,3.43,0,1.35-.89,3.61-1.89,3.94-2.72.9-2.6,2.82-2.74,4.88-1.86,27.78-12,52.13-30.71,72.73A113.42,113.42,0,0,1,141,215.82C140.18,216,139.4,216.2,138.42,216.45ZM31.93,98.5c1,7.11,1.53,14.34,3.17,21.31C47.25,171.48,101.21,201.6,150,184.13c55-19.71,77.32-86.69,45.18-135.55C175,18,139.13,2.42,105.05,9.44,62.43,18.22,32.56,54.88,31.93,98.5Zm-19.72,4.18c3.12,40.68,20.67,72.59,56,92.51,39,22,78.26,19.77,115-5.75,29.78-20.69,44.5-50.41,46.86-86.66H217.82c-1.59,49.16-41.14,91.35-91.19,94-23,1.23-44-5-62.36-18.91-24.78-18.83-37.51-44.24-39.62-75.21Zm109.07,154.8c7.09,0,14.18-.09,21.27,0,3,.06,3.83-1.24,3.82-4s-1.12-3.68-3.79-3.66q-21.29.11-42.56,0c-2.81,0-4,.92-4,3.82s1.14,3.88,4,3.83C107.09,257.39,114.18,257.48,121.28,257.48Z"/><path d="M202.64,94c-.08,45.16-28.11,78.91-68,86.43C98.05,187.32,60.08,165.75,45.81,130,27.62,84.36,51.65,33.11,98,18.83a109.66,109.66,0,0,1,13.27-2.78c2.45-.43,4.47.43,4.76,3.28s-1.25,4.1-4,4.55C78.24,29.41,54.5,52.34,48.67,86c-7.53,43.48,24,83.69,66.19,87.29,39.66,3.37,75.07-26,79.39-66,4.11-38-19-72.35-55.16-81.75a83.34,83.34,0,0,0-8.88-1.72c-2.63-.39-4.06-1.67-3.86-4.37S128.43,15.75,131,16A73.1,73.1,0,0,1,162.64,27C188.87,43.54,201.66,67.76,202.64,94Z"/><path d="M168.45,106.86c-1,1.32-1.72,3-2.84,3.37a5.15,5.15,0,0,1-4.32-.72c-3.54-3.17-6.75-6.71-10.09-10.12q-20.37-20.81-40.77-41.6c-2-2-3.25-4.1-1.16-6.65,1.64-2,4.23-1.53,6.87,1.17q24.9,25.41,49.75,50.86A28.6,28.6,0,0,1,168.45,106.86Z"/><path d="M131.58,43.47a20.46,20.46,0,0,1,3.35,2.22q18.45,18.77,36.84,37.6c2,2.07,3.12,4.35.66,6.61-2.3,2.09-4.44.91-6.35-1.05q-17.91-18.33-35.87-36.61c-.73-.74-1.76-1.5-2-2.4a7.31,7.31,0,0,1,.24-4.23C128.92,44.68,130.41,44.23,131.58,43.47Z"/></g></g></svg>