<svg xmlns="http://www.w3.org/2000/svg" viewBox="0 0 266.93 232.19"><title>gift-pack</title><g id="Layer_2" data-name="Layer 2"><g id="Layer_1-2" data-name="Layer 1"><path d="M78.5,216.45V97.23c-1.61-.08-3.16-.21-4.71-.21q-32,0-64,0C3.12,97,.05,94,0,87.45Q0,69.42,0,51.38c0-6.51,3.12-9.5,9.77-9.51q16.21,0,32.42,0H47c0-8.46,0-16.53,0-24.6A17.81,17.81,0,0,1,51.31,4.93c4.93-5.6,11.6-6.49,17.8-2.35C76.74,7.68,84.25,13,92,17.94c1.45.93,3.6,1,5.45,1a85.73,85.73,0,0,0,9.21,0c2-.12,4.28-.11,5.84-1.11,7.39-4.72,14.76-9.51,21.79-14.75,8.85-6.58,19.64-1.73,22.25,8.77a31.74,31.74,0,0,1,.76,7.22c.12,7.16.07,14.32.11,21.48a6.73,6.73,0,0,0,.46,1.3H168c9.05,0,18.1,0,27.16,0,5.76,0,9.08,3.16,9.13,9,.11,12.42.08,24.86,0,37.28,0,1.56-.25,3.63-1.24,4.57-4.84,4.57-2.71,10.22-3.16,16.05,9.26-.05,14.26,6.18,19.44,12.34,13.39,15.91,26.91,31.71,40.41,47.54,9.61,11.28,9.63,26.36,0,37.7-5,5.86-9.94,11.76-14.95,17.6-9.42,11-22.2,11-31.66.05-4.12-4.77-8.18-9.6-12.78-15-.3,2.38-.46,4-.73,5.67-1.15,7-5.72,11-12.75,11q-29,0-58,0c-2.34,0-4.19.25-6,2.26a9.32,9.32,0,0,1-6.11,2.39c-9.72.24-19.45.22-29.18,0-2,0-4.65-.71-5.8-2.09-2.08-2.51-4.4-2.58-7.15-2.57q-28.36.07-56.74,0C10.42,225.64,6,222,4.66,214.71a28.56,28.56,0,0,1-.44-5.23q0-47.82,0-95.65c0-1.47-.23-3.24.47-4.35.87-1.37,2.67-3.1,3.92-3s2.74,2.07,3.52,3.54c.56,1.07.18,2.65.18,4q0,47.42,0,94.84c0,6.56,1,7.59,7.4,7.59q27.17,0,54.31,0Zm47.38,0c18,0,35.56,0,53.09,0,12.47,0,13.29,1.7,13.14-13a10.79,10.79,0,0,0-2.83-7.58c-6.86-7.81-13.41-15.88-20.26-23.69a27.18,27.18,0,0,1-7-18.86c.07-7.29-.25-14.6.13-21.87.2-3.81,1.58-7.56,2.33-11.36a8.44,8.44,0,0,0,.09-3.67q-2.34-8.53-5-17c-.29-.92-1.33-2.3-2-2.31C147,97,136.56,97,125.88,97Zm45-90.31a16.92,16.92,0,0,0-.62,2.77c0,9.18-.26,18.37.14,27.53a13.87,13.87,0,0,0,3.3,7.61q22.74,27.16,45.85,54c5.37,6.25,13.21,6.21,18.66,0q8.46-9.56,16.56-19.41c5.41-6.58,5.69-15.52.25-22q-22.87-27.32-46.25-54.22a13,13,0,0,0-8-3.93c-6.7-.57-13.49-.22-20.24-.15a23.47,23.47,0,0,0-3.91.77c2.09,2.54,4,4.49,5.43,6.7a4.68,4.68,0,0,1-.75,6.59c-2.24,1.91-4.24.84-5.92-1.15C174.1,129.8,172.77,128.31,170.88,126.14ZM117.44,46.8H86.9V220.5h30.38V97c-6.23,0-12.17,0-18.11,0-2.62,0-4.5-.79-5.08-3.54-.68-3.27,1.32-5.74,4.87-5.79,6.15-.08,12.3,0,18.48,0ZM8.3,51.32v36.1H78.38V51.32ZM125.84,87.37H196V51.43H125.84Zm23.32-45.69c0-8.8.24-17.27-.09-25.72-.2-5-5-8.08-8.77-5.75-8,5-15.6,10.42-23.38,15.67l3.91,7.18c4.65-3.14,9-6,13.32-9,2.21-1.53,4.48-2.44,6.37.1s1.51,5.18-1,7.13-5.11,3.5-7.65,5.26c-2.1,1.46-4.16,3-7.19,5.14Zm-70.79-.11.16-.81c-4.22-2.87-8.53-5.63-12.62-8.7a7.92,7.92,0,0,1-3.09-4.36,5.2,5.2,0,0,1,2-4.36c1.12-.67,3.46-.32,4.73.46,4.76,2.88,9.3,6.11,14,9.28,1.39-2.71,2.47-4.83,3.73-7.27C79.44,20.54,71.86,15.2,64,10.26a5.75,5.75,0,0,0-8.64,4.81c-.47,8.81-.13,17.67-.13,26.5ZM191.8,97.28H167.1c1.4,5,2.67,9.52,3.68,13.1l21-2.11ZM112.61,37.11c-1.35-5.88-6.11-9.68-11.21-9.28a10.5,10.5,0,0,0-9.51,9.28Z"/></g></g></svg>