<svg xmlns="http://www.w3.org/2000/svg" viewBox="0 0 292.39 329.22"><title>mask</title><g id="Layer_2" data-name="Layer 2"><g id="Layer_1-2" data-name="Layer 1"><path d="M176.61,319.24c-.58-3.54-1.37-6.42-1.44-9.32-.08-3.16-1.64-4.17-4.4-4.86a129.47,129.47,0,0,1-37.9-15.61c-14.71-9.22-26.64-20.88-30.37-38.6-1.31-6.19-1-12.71-1.57-19.07-.91-10.68-1.9-21.35-2.87-32.26l-22.41,3.94C78.53,242,78,280.35,69.78,319c2,.11,3.57.26,5.2.27,10.31,0,20.61,0,30.92,0a31.44,31.44,0,0,1,4.66.27c2.85.42,5.07,2.21,4.21,5a7.35,7.35,0,0,1-4.81,4.36c-4.27.65-8.71.21-13.08.21-8.75,0-17.49,0-26.24,0-9.11,0-13.15-5.06-11.27-13.84,5.38-25.14,7.24-50.58,6.87-75.17-9.4,0-18.66,1.14-27.53-.23C17.38,236.56,2.1,220,.18,199.28a37.43,37.43,0,0,1,9-28.25c2.75-3.29,2.33-5.7,1.28-9.5-3.09-11.22-5.65-22.62-7.66-34.08-1.15-6.57.75-9,4.77-9.31s5.77,2,6.1,8.5c.87,17.2,6.16,33,15,47.67.55.91,1.2,1.77,2.53,3.75,7.31-8.45,15.17-15.91,21.1-24.68q22.66-33.51,43.86-68c15.65-25.3,29.22-51.93,50.06-74.93-8.15,0-15.58-.6-22.88.1C86.19,14.12,55.58,29.87,33.11,60.14a100.92,100.92,0,0,0-17.45,39c-1.11,5-3.12,6.77-7.07,6.07C5,104.57,3.82,102.1,5,97.14,15.06,55,41.77,27.19,80.87,10.62,105,.4,130.25-2.08,156.14,1.62a9,9,0,0,0,3.23.08c19.26-4.45,35.91,1.42,51.32,12.66a25.62,25.62,0,0,0,7.67,3.86c9.56,2.84,17.77,18,14.86,28.8-1,3.83-.19,6.2,2.12,9.14,11.89,15.14,21.43,31.63,24.13,51,1.11,8,1.28,16.69-.44,24.56-3,13.8.06,25.69,7.9,36.69,4.7,6.6,10.2,12.62,15.18,19a88.75,88.75,0,0,1,8.35,11.8c3.49,6.41,2.26,11.89-3.74,16a147,147,0,0,1-16.31,9.05c-6.36,3.22-8.2,5.47-6.06,12.19,3.72,11.67.56,21.24-6.47,30.58-2.06,2.74-2.25,7-3,10.56a33.56,33.56,0,0,0-.22,5.6c-.64,17.42-8.2,26.12-25.66,27-13,.63-26.12-.69-39.18-1.17-1,0-2.09-.26-3.7-.47.47,3.11.91,5.81,1.27,8.53.93,7.05-3.1,12-10.21,12-13.9.11-27.8,0-41.69.06-3.4,0-6.17-1-6.28-4.7-.11-4,3-5.12,6.43-5.14,11.71-.06,23.42,0,35.13,0Zm75.68-62.16c-4.4,0-7.48.28-10.49-.06-5.87-.66-11.72-1.55-17.52-2.59-2.95-.53-4.88-2.5-4.17-5.69s3.35-4.3,6.49-3.9c1.38.17,2.72.66,4.09.95,8.12,1.77,16.24,2.39,24.62.34-.64-2.95-1.31-5.66-1.8-8.39-2-11.13.69-16.6,10.69-21.69,2.08-1.05,4.21-2,6.32-3,12.89-6.12,13.1-7.48,4-18.37-6.29-7.53-12.66-15.06-18.26-23.1-7.65-11-11.73-23.48-8.54-36.77,4.21-17.55,1.14-33.8-6.7-49.39-4.12-8.2-9.33-15.86-14.19-24-1.07,1-1.21,1.1-1.3,1.23-31.81,49.47-69.76,93.42-116.31,129.67a5,5,0,0,0-1.47,3.87c1.38,13.94,4,27.84,4.15,41.78.18,15.83,6.81,27.51,18.52,37,13,10.53,28,16.75,44.07,20.72,18,4.46,36.2,6.92,54.69,4.51,10.73-1.4,13.93-5.2,14.5-16C244.19,274.73,243.67,265.08,252.29,257.08ZM203.39,21.91c-7-5.58-14.63-8.71-22.92-10.81-11.89-3-21.6-.18-29,9.62-7.6,10.07-15.64,19.89-22.31,30.56-14.8,23.66-28.55,48-43.31,71.65-13.69,22-27.39,44-47.06,61.46-1.26,1.12-1.93,2.91-3.22,4.93,5.34,1.16,9.59,4,14.3,0,34.35-29.49,67.7-60,98.43-93.33C169.18,73.36,189.18,50.05,203.39,21.91ZM62,192.81c6.1,0,11.5.23,16.87-.05,11.17-.59,20.37-5.4,29.05-12.46,44.83-36.42,81.42-79.9,111.77-128.84,4.85-7.82,4.23-14.39-1.88-21.35-3-3.39-4.58-3-7.08.77-9.27,14-17.89,28.62-28.3,41.77-28.48,36-61.7,67.45-95.67,98.13C78.69,178.06,70.53,185.21,62,192.81ZM18.32,176.68A28.7,28.7,0,0,0,11,194.57C9.51,221,39,238.2,63.84,228.38c1.09-.43,2.14-2.54,2.13-3.87,0-5.28-.72-10.57-.76-15.86,0-4.21-1.5-5.8-5.94-6.07a212.81,212.81,0,0,1-23.59-2.91c-4.35-.75-8.16-3-10.13-7.43C23.34,187.24,21,182.32,18.32,176.68Z"/></g></g></svg>