<svg xmlns="http://www.w3.org/2000/svg" viewBox="0 0 279.26 260.52"><title>moisturizer</title><g id="Layer_2" data-name="Layer 2"><g id="Layer_1-2" data-name="Layer 1"><path d="M205,237.45l10.75,9.38c2.79-2.7,6.26-5.94,9.6-9.31,3.15-3.18,5.82-3.75,8.33-1.56s2.34,5.49-.72,8.67q-6.53,6.81-13.17,13.5c-3.2,3.19-5.69,3.2-8.89,0q-8.21-8.27-16.26-16.68c-3.07-3.2-2.76-5,1.71-10.47a43,43,0,0,0-16.88-7.56c-12.11-2.79-24-.79-35.86,1.79-10.58,2.31-21.11,4.91-31.75,6.91-17.59,3.3-32.41-2.85-45.7-14-17.45-14.63-31.44-32.28-44.58-50.67-3.23-4.51-6.47-9-9.28-13.8A20.25,20.25,0,0,1,14,130.74c4.82-6.06,13.18-8.94,20.58-6.38a28.58,28.58,0,0,1,8.93,5.6,5.2,5.2,0,0,1,.39,7.88c-2.15,2.18-5,1.93-7.8-.69-4.11-3.82-8.71-4.22-12.67-1.1a9.42,9.42,0,0,0-1.88,13c13.49,20.23,28.23,39.4,45.74,56.49,16.07,15.69,34.13,20.06,55.58,13.94a227,227,0,0,1,34.32-7.08c20.09-2.46,29.61.2,46.94,10.92l36.56-37.36a134.15,134.15,0,0,0-29.17-21.48c-12.12-6.54-24.91-11.08-38.84-9.74a67.6,67.6,0,0,0-19.5,5c-14.89,6.28-29.68,12.62-45.8,15.16-3.46.55-6.79,1.9-8.06,5.66-1.55,4.58.93,9,5.84,10.22,8.18,2.07,16.16.27,24.06-1.73,3.33-.85,6.54-2.17,9.83-3.19,3.46-1.06,6.24.22,7.22,3.2.89,2.73-.5,5.52-3.69,6.69-10.8,4-21.8,7-33.5,6.29-15.36-.92-22.48-10.18-19.46-25.39a6.28,6.28,0,0,0,0-1c-2.46-.48-5-.89-7.43-1.47-12.71-3-22.79-10.25-31.54-19.61a5.2,5.2,0,0,1,0-7.61c2.18-2.12,5.27-2,7.82.71,8.27,8.7,17.77,15.28,29.93,17,10.44,1.5,20.71,0,30.61-3.23,9.11-3,18.27-6.1,26.87-10.27,20.29-9.84,40.44-9.15,60.76-.69,14.27,5.93,26.7,14.75,38.2,24.95l3.84,3.39a51.35,51.35,0,0,1,3.93-4.92c2.42-2.42,5.13-2.51,7.49-.18q8.67,8.59,17.1,17.42c2.66,2.78,2.65,5.46,0,8.16q-14.39,14.88-28.93,29.64a5.19,5.19,0,1,1-7.42-7.24c7-7.32,14.05-14.54,21.15-21.74,1.45-1.48,3.16-2.72,4.87-4.18L255.89,185.4Q231.05,210.77,205,237.45Z"/><path d="M75.85,29.37c-2.51,3.74-4.39,6.59-6.31,9.42-2.14,3.14-4.84,4-7.51,2.28s-3.25-4.76-1.25-7.78c3.33-5,6.77-10,10.44-14.79,2.64-3.45,6-3.47,8.69-.07,14.63,18.82,26.26,39.13,29.21,63.25a54.71,54.71,0,0,1-.88,18.67c-3.73,16.07-19.28,26.17-36.16,24.4-17.55-1.84-29.86-14.83-30.57-32.38C41,79,44.34,66.49,49.59,54.39c1.37-3.16,4.17-4.26,6.9-3s3.53,4,2.57,7.22c-2.36,8-5,15.95-6.73,24.1a36.2,36.2,0,0,0,.2,13.56c2.12,11.51,12.5,19,24.33,18.18,12.81-.9,21.7-9.53,22.4-21.78.86-15-4.07-28.66-10.76-41.71C84.86,43.82,80.43,37.12,75.85,29.37Z"/><path d="M29.51,24.17A14.45,14.45,0,0,1,16.67,38.5c-.86.11-2-.16-2.53.28-1.41,1.1-3.28,2.32-3.68,3.83C9.82,45,11.64,46.48,14,46.91c1.69.31,3.48.16,5.12.6A14.7,14.7,0,0,1,29.49,60.57c.2,3.37-1.58,5.81-4.49,6.16-3.07.38-5.11-1.24-5.71-4.83-.52-3.08-2.18-4.34-5.27-4.51C5.76,56.94.11,51.1,0,43.16c-.11-8.19,5.4-14.39,13.68-15,2.95-.22,5.44-.87,5.42-4.12,0-3.42-2.64-4.17-5.71-4.28A14.16,14.16,0,0,1,0,5.69C0,2.46,1.44.4,4.59,0a4.64,4.64,0,0,1,5.49,4.31c.44,4,2.57,5,6.2,5.16C23.71,9.78,29.62,16.51,29.51,24.17Z"/><path d="M153.36,77.38c0,8.16-5.37,13.77-13.73,14.33-2.93.2-5.31,1.2-5.27,4.42,0,3,2.31,4.07,5.14,4a11.45,11.45,0,0,1,1.83.23,14.09,14.09,0,0,1,12.08,14.1c0,3-1.32,5.07-4.37,5.42s-5.27-1.24-5.67-4.45c-.43-3.48-2.24-4.63-5.68-4.83a14.31,14.31,0,0,1-13.68-15c.18-7.87,5.91-13.76,14.07-14.23,2.85-.16,5-1.07,5-4.14s-2-4.06-4.93-4.2c-7.81-.4-13.34-5.64-14.08-13.06-.36-3.72,1.17-6.22,4.17-6.78s5.12,1.3,5.88,5.08c.62,3,2.39,4.2,5.44,4.36C147.93,63.12,153.41,69.09,153.36,77.38Z"/></g></g></svg>